# AST/ASF file generated using VICON BodyLanguage
# -----------------------------------------------
:version 1.10
:name VICON
:units
  mass 1.0
  length 0.45
  angle deg
:documentation
   .ast/.asf automatically generated from VICON data using
   VICON BodyBuilder and BodyLanguage model FoxedUp or BRILLIANT.MOD
:root
   order TX TY TZ RX RY RZ
   axis XYZ
   position 0 0 0  
   orientation 0 0 0 
:bonedata
  begin
     id 1 
     name lhipjoint
     direction 0.578396 -0.714046 0.394458 
     length 2.21935 
     axis 0 0 0  XYZ
  end
  begin
     id 2 
     name lfemur
     direction 0.34202 -0.939693 0  
     length 6.39105  
     axis 0 0 20  XYZ
    dof rx ry rz
    limits (-160.0 20.0)
           (-70.0 70.0)
           (-60.0 70.0)
  end
  begin
     id 3 
     name ltibia
     direction 0.34202 -0.939693 0   
     length 6.99037   
     axis 0 0 20   XYZ
    dof rx
    limits (-10.0 170.0)
  end
  begin
     id 4 
     name lfoot
     direction 0.0582372 -0.160005 0.985397   
     length 2.06111   
     axis -90 7.62852e-016 20   XYZ
    dof rx rz
    limits (-45.0 90.0)
           (-70.0 20.0)
  end
  begin
     id 5 
     name ltoes
     direction 1.53556e-011 -4.21875e-011 1   
     length 1.04074   
     axis -90 7.62852e-016 20   XYZ
    dof rx
    limits (-90.0 20.0)
  end
  begin
     id 6 
     name rhipjoint
     direction -0.558179 -0.726269 0.40121   
     length 2.182  
     axis 0 0 0  XYZ 
  end
  begin
     id 7 
     name rfemur
     direction -0.34202 -0.939693 0   
     length 6.51172   
     axis 0 0 -20   XYZ
    dof rx ry rz
    limits (-160.0 20.0)
           (-70.0 70.0)
           (-70.0 60.0)
  end
  begin
     id 8 
     name rtibia
     direction -0.34202 -0.939693 0   
     length 7.02607   
     axis 0 0 -20   XYZ
    dof rx
    limits (-10.0 170.0)
 end
 begin
     id 9 
     name rfoot
     direction -0.0788856 -0.216737 0.973038   
     length 1.96734  
     axis -90 -7.62852e-016 -20   XYZ
    dof rx rz
    limits (-45.0 90.0)
           (-20.0 70.0)
  end
  begin
     id 10 
     name rtoes
     direction -1.53567e-011 -4.21783e-011 1   
     length 0.990825   
     axis -90 -7.62852e-016 -20   XYZ
    dof rx
    limits (-90.0 20.0)
  end
  begin
     id 11 
     name lowerback
     direction 0.00668177 0.999323 -0.0361741   
     length 1.7655   
     axis 0 0 0   XYZ
    dof rx ry rz
    limits (-20.0 45.0)
           (-30.0 30.0)
           (-30.0 30.0)
  end
  begin
     id 12 
     name upperback
     direction -0.00222086 0.99851 0.0545167   
     length 1.74912   
     axis 0 0 0   XYZ
    dof rx ry rz
    limits (-20.0 45.0)
           (-30.0 30.0)
           (-30.0 30.0)
  end
  begin
     id 13 
     name thorax
     direction -0.00733971 0.997496 0.0703443   
     length 1.75715   
     axis 0 0 0   XYZ
    dof rx ry rz
    limits (-20.0 45.0)
           (-30.0 30.0)
           (-30.0 30.0)
  end
  begin
     id 14 
     name lowerneck
     direction 0.0279797 0.994795 0.0979765   
     length 1.46939   
     axis 0 0 0   XYZ
    dof rx ry rz
    limits (-20.0 45.0)
           (-30.0 30.0)
           (-30.0 30.0)
  end
  begin
     id 15 
     name upperneck
     direction 0.00339187 0.976776 -0.214238   
     length 1.48018   
     axis 0 0 0   XYZ
    dof rx ry rz
    limits (-20.0 45.0)
           (-30.0 30.0)
           (-30.0 30.0)
  end
  begin
     id 16
     name head
     direction -0.00263506 0.996603 -0.0823096  
     length 1.4976  
     axis 0 0 0   XYZ
    dof rx ry rz
    limits (-20.0 45.0)
           (-30.0 30.0)
           (-30.0 30.0)
  end
  begin
     id 17 
     name lclavicle
     direction 0.894044 0.44508 -0.0508781  
     length 3.03024  
     axis 0 0 0   XYZ
    dof ry rz
    limits (-20.0 10.0)
           (0.0 20.0)
  end
  begin
     id 18 
     name lhumerus
     direction 1 -4.48961e-011 -2.39475e-018   
     length 4.4661   
     axis 180 -30 -90   XYZ
    dof rx ry rz
    limits (-60.0 90.0)
           (-90.0 90.0)
           (-90.0 90.0)
  end
  begin
     id 19
     name lradius
     direction 1 -4.48961e-011 9.29328e-028   
     length 3.41414   
     axis 180 -30 -90   XYZ
    dof rx
    limits (-10.0 170.0)
  end
  begin
     id 20
     name lwrist
     direction 1 -4.48985e-011 1.53461e-026   
     length 1.70707   
     axis -1.09697e-014 90 90   XYZ
    dof ry
    limits (-180.0 0.0)
 end
  begin
     id 21 
     name lhand
     direction 1 -4.48966e-011 3.06923e-026   
     length 0.328298   
     axis -1.95843e-014 90 90   XYZ
    dof rx rz
    limits (-90.0 90.0)
           (-45.0 45.0)
  end
  begin
     id 22 
     name lfingers
     direction 1 -4.48893e-011 6.13845e-026   
     length 0.264682   
     axis -3.91686e-014 90 90   XYZ
    dof rx
    limits (0.0 90.0)
  end
  begin
     id 23
     name lthumb
     direction 0.707107 -6.34876e-011 0.707107   
     length 0.380032   
     axis -90 45 2.85299e-015   XYZ
    dof rx rz
    limits (-45.0 45.0)
           (-45.0 45.0)
  end
  begin
     id 24 
     name rclavicle
     direction -0.936955 0.347862 -0.0332887   
     length 3.26927  
     axis 0 0 0   XYZ 
    dof ry rz
    limits (-10.0 20.0)
           (-20.0 0.0)
  end
  begin
     id 25 
     name rhumerus
     direction -1 -4.4896e-011 1.78637e-018  
     length 4.40431   
     axis 180 30 90   XYZ
    dof rx ry rz
    limits (-90.0 60.0)
           (-90.0 90.0)
           (-90.0 90.0)
  end
  begin
     id 26 
     name rradius
     direction -1 -4.48955e-011 9.34036e-027   
     length 3.04688   
     axis 180 30 90   XYZ
    dof rx
    limits (-10.0 170.0)
  end
  begin
     id 27 
     name rwrist
     direction -1 -4.49011e-011 1.53461e-026   
     length 1.52344   
     axis -1.09697e-014 -90 -90   XYZ
    dof ry
    limits (-180.0 0.0)
  end
  begin
     id 28
     name rhand
     direction -1 -4.48834e-011 3.06923e-026   
     length 0.500489   
     axis -1.95843e-014 -90 -90   XYZ
    dof rx rz
    limits (-90.0 90.0)
           (-45.0 45.0)
  end
  begin
     id 29
     name rfingers
     direction -1 -4.48967e-011 6.13845e-026   
     length 0.403507   
     axis -3.91686e-014 -90 -90   XYZ
    dof rx
    limits (0.0 90.0)
  end
  begin
     id 30
     name rthumb
     direction -0.707107 -6.34826e-011 0.707107   
     length 0.579358   
     axis -90 -45 -2.85299e-015   XYZ
    dof rx rz
    limits (-45.0 45.0)
           (-45.0 45.0)
  end
:hierarchy
  begin
    root lhipjoint rhipjoint lowerback
    lhipjoint lfemur
    lfemur ltibia
    ltibia lfoot
    lfoot ltoes
    rhipjoint rfemur
    rfemur rtibia
    rtibia rfoot
    rfoot rtoes
    lowerback upperback
    upperback thorax
    thorax lowerneck lclavicle rclavicle
    lowerneck upperneck
    upperneck head
    lclavicle lhumerus
    lhumerus lradius
    lradius lwrist
    lwrist lhand lthumb
    lhand lfingers
    rclavicle rhumerus
    rhumerus rradius
    rradius rwrist
    rwrist rhand rthumb
    rhand rfingers
  end

#!OML:ASF H:\IndianDance\Patient Classification 1\Patient 1\Session 1\dancer.ASF
:FULLY-SPECIFIED
:DEGREES
786
root 6.51831 15.9419 2.48025 -172.202 1.5 -180.382
lowerback 4.93448 8.50661 -0.281131
upperback -10.3635 12.2921 -3.37847
thorax -13.3461 6.08289 -5.58276
lowerneck -11.62 14.0491 9.60435
upperneck 10.2892 16.1165 7.04303
head 5.17033 8.62842 2.02961
rclavicle 4.28381e-014 -3.97569e-015
rhumerus -8.13601 15.3805 -13.042
rradius 23.3499
rwrist 30.4328
rhand -50.8143 19.453
rfingers 7.12502
rthumb -23.3704 -9.14811
lclavicle 4.28381e-014 -3.97569e-015
lhumerus 5.09706 14.3899 -6.33518
lradius 39.0624
lwrist -24.7193
lhand -60.4685 -385.596
lfingers 7.12502
lthumb -32.5977 -358.512
rfemur -17.966 -17.0691 27.6988
rtibia 34.4409
rfoot -11.1375 1.28715
rtoes 10.5877
lfemur -39.9582 13.084 12.9139
ltibia 106.425
lfoot 36.8038 -10.8032
ltoes 16.4177
787
root 6.56272 16.0006 2.47234 -172.17 1.65247 -180.09
lowerback 5.01165 8.6024 -0.281295
upperback -10.4432 12.4586 -3.12356
thorax -13.5407 6.16788 -5.36883
lowerneck -11.7246 13.9554 9.57977
upperneck 10.3434 15.9382 7.27156
head 5.18417 8.55548 2.0943
rclavicle 1.09729e-013 3.10104e-014
rhumerus -8.08462 15.7538 -12.6283
rradius 23.5439
rwrist 30.1005
rhand -50.8338 19.4389
rfingers 7.12502
rthumb -23.3892 -9.15982
lclavicle 1.09729e-013 3.10104e-014
lhumerus 6.27809 15.0608 -7.007
lradius 40.5383
lwrist -24.0239
lhand -60.5676 -385.572
lfingers 7.12502
lthumb -32.692 -358.508
rfemur -17.258 -16.9239 28.0699
rtibia 33.0933
rfoot -10.0486 1.82996
rtoes 10.439
lfemur -42.3158 14.5787 13.1904
ltibia 111.092
lfoot 37.844 -12.6886
ltoes 16.31
788
root 6.6064 16.0525 2.4636 -172.13 1.7554 -179.802
lowerback 5.0484 8.67727 -0.301463
upperback -10.5081 12.5966 -2.85884
thorax -13.7035 6.24487 -5.12047
lowerneck -11.8288 13.85 9.5384
upperneck 10.3761 15.7517 7.47941
head 5.19179 8.47621 2.15319
rclavicle 4.69132e-014 1.19271e-014
rhumerus -8.00469 16.0667 -12.2007
rradius 23.7349
rwrist 29.7551
rhand -50.8462 19.427
rfingers 7.12502
rthumb -23.4011 -9.17026
lclavicle 4.69132e-014 1.19271e-014
lhumerus 7.41802 15.6764 -7.68914
lradius 42.0815
lwrist -23.1552
lhand -60.5756 -385.253
lfingers 7.12502
lthumb -32.6997 -358.19
rfemur -16.6162 -16.881 28.4566
rtibia 31.8517
rfoot -9.03655 2.32811
rtoes 10.2861
lfemur -44.6723 16.2387 13.4357
ltibia 115.482
lfoot 38.7698 -14.558
ltoes 16.4751
789
root 6.64951 16.0973 2.45392 -172.099 1.80713 -179.501
lowerback 5.06302 8.73297 -0.318034
upperback -10.5554 12.7099 -2.57939
thorax -13.8378 6.31269 -4.84776
lowerneck -11.9371 13.7359 9.48394
upperneck 10.4043 15.5593 7.66579
head 5.19973 8.39257 2.20707
rclavicle -5.77469e-014 -5.40694e-014
rhumerus -7.90322 16.3238 -11.7584
rradius 23.9252
rwrist 29.4043
rhand -50.8512 19.4169
rfingers 7.12502
rthumb -23.4059 -9.17969
lclavicle -5.77469e-014 -5.40694e-014
lhumerus 8.49316 16.1845 -8.42706
lradius 43.6919
lwrist -22.0089
lhand -60.4861 -384.572
lfingers 7.12502
lthumb -32.6145 -357.491
rfemur -16.0191 -16.9354 28.8701
rtibia 30.7123
rfoot -8.10388 2.78024
rtoes 10.2782
lfemur -47.0108 18.0633 13.6434
ltibia 119.584
lfoot 39.4627 -16.4847
ltoes 16.606
790
root 6.69219 16.1346 2.44331 -172.09 1.81409 -179.178
lowerback 5.0722 8.77252 -0.313806
upperback -10.5837 12.8033 -2.2852
thorax -13.9475 6.371 -4.56292
lowerneck -12.0559 13.6119 9.44042
upperneck 10.4417 15.3555 7.81263
head 5.21668 8.30218 2.24838
rclavicle -5.18828e-014 -3.45885e-014
rhumerus -7.78887 16.519 -11.3103
rradius 24.1148
rwrist 29.0641
rhand -50.8618 19.4068
rfingers 7.12502
rthumb -23.4161 -9.18855
lclavicle -5.18828e-014 -3.45885e-014
lhumerus 9.52785 16.6503 -9.20081
lradius 45.3576
lwrist -20.5751
lhand -60.2342 -383.511
lfingers 7.12502
lthumb -32.3748 -356.38
rfemur -15.449 -17.0789 29.3198
rtibia 29.6723
rfoot -7.25163 3.18071
rtoes 10.3286
lfemur -49.3124 20.048 13.8049
ltibia 123.389
lfoot 39.82 -18.5523
ltoes 16.417
791
root 6.73464 16.1643 2.43183 -172.116 1.78553 -178.82
lowerback 5.09323 8.7966 -0.275959
upperback -10.5937 12.8791 -1.97329
thorax -14.0416 6.41881 -4.27308
lowerneck -12.1821 13.4824 9.40816
upperneck 10.4897 15.1444 7.93339
head 5.24152 8.20773 2.28115
rclavicle -7.18607e-014 2.50469e-014
rhumerus -7.66104 16.6554 -10.8671
rradius 24.3033
rwrist 28.7448
rhand -50.8738 19.3898
rfingers 7.12502
rthumb -23.4275 -9.20408
lclavicle -7.18607e-014 2.50469e-014
lhumerus 10.4879 17.0487 -10.0412
lradius 47.0958
lwrist -18.7781
lhand -59.8368 -382.134
lfingers 7.12502
lthumb -31.9965 -354.928
rfemur -14.8918 -17.2964 29.814
rtibia 28.7299
rfoot -6.47851 3.53164
rtoes 10.4698
lfemur -51.5616 22.1678 13.903
ltibia 126.882
lfoot 39.8043 -20.684
ltoes 15.8946
792
root 6.77706 16.1863 2.41959 -172.182 1.73651 -178.424
lowerback 5.13709 8.81061 -0.200054
upperback -10.5875 12.945 -1.64733
thorax -14.1269 6.45861 -3.98803
lowerneck -12.3189 13.3471 9.3885
upperneck 10.5504 14.9228 8.03868
head 5.27466 8.10835 2.30828
rclavicle -1.85665e-013 -6.55989e-014
rhumerus -7.53004 16.7389 -10.4384
rradius 24.4888
rwrist 28.4453
rhand -50.8886 19.3553
rfingers 7.12502
rthumb -23.4418 -9.23671
lclavicle -1.85665e-013 -6.55989e-014
lhumerus 11.437 17.4582 -10.8777
lradius 48.8639
lwrist -16.682
lhand -59.2797 -380.521
lfingers 7.12502
lthumb -31.4659 -353.209
rfemur -14.341 -17.5685 30.3524
rtibia 27.8857
rfoot -5.78676 3.83679
rtoes 10.7151
lfemur -53.7525 24.3739 13.8994
ltibia 130.042
lfoot 39.535 -22.5442
ltoes 15.5504
793
root 6.81958 16.2007 2.40665 -172.291 1.68406 -177.988
lowerback 5.21268 8.81871 -0.0805573
upperback -10.5662 13.0075 -1.30926
thorax -14.2081 6.49233 -3.71548
lowerneck -12.4616 13.2049 9.37952
upperneck 10.6196 14.6882 8.13863
head 5.31311 8.00314 2.33215
rclavicle -7.70291e-014 -4.49253e-014
rhumerus -7.39535 16.7824 -10.0332
rradius 24.6687
rwrist 28.1609
rhand -50.9108 19.3125
rfingers 7.12502
rthumb -23.4631 -9.27679
lclavicle -7.70291e-014 -4.49253e-014
lhumerus 12.3898 17.8904 -11.6994
lradius 50.6538
lwrist -14.2951
lhand -58.6072 -378.711
lfingers 7.12502
lthumb -30.8249 -351.277
rfemur -13.7887 -17.8774 30.9344
rtibia 27.1405
rfoot -5.18393 4.09812
rtoes 11.0024
lfemur -55.8826 26.5691 13.7424
ltibia 132.846
lfoot 39.032 -24.1506
ltoes 15.2172
794
root 6.86212 16.2076 2.39318 -172.443 1.6408 -177.515
lowerback 5.32253 8.82757 0.0818777
upperback -10.5323 13.0768 -0.961139
thorax -14.2891 6.5247 -3.45985
lowerneck -12.6003 13.0507 9.35174
upperneck 10.6794 14.4397 8.25289
head 5.34586 7.89098 2.36043
rclavicle 6.79844e-014 3.77691e-014
rhumerus -7.26265 16.792 -9.64738
rradius 24.8359
rwrist 27.8955
rhand -50.937 19.2602
rfingers 7.12502
rthumb -23.4881 -9.32589
lclavicle 6.79844e-014 3.77691e-014
lhumerus 13.3735 18.3785 -12.4522
lradius 52.4551
lwrist -11.6767
lhand -57.8245 -376.752
lfingers 7.12502
lthumb -30.0785 -349.179
rfemur -13.2365 -18.2209 31.5502
rtibia 26.4948
rfoot -4.67484 4.33746
rtoes 11.3304
lfemur -57.9754 28.5994 13.3497
ltibia 135.265
lfoot 38.3764 -25.4278
ltoes 14.9439
795
root 6.9047 16.2073 2.3793 -172.633 1.6208 -177.016
lowerback 5.46689 8.83719 0.27761
upperback -10.485 13.1505 -0.612263
thorax -14.3689 6.55485 -3.22561
lowerneck -12.7471 12.8923 9.35429
upperneck 10.7536 14.18 8.3449
head 5.38883 7.77368 2.37849
rclavicle 1.84621e-013 7.79236e-014
rhumerus -7.12663 16.7853 -9.29991
rradius 24.9877
rwrist 27.632
rhand -50.9635 19.1869
rfingers 7.12502
rthumb -23.5135 -9.39596
lclavicle 1.84621e-013 7.79236e-014
lhumerus 14.4138 18.9601 -13.1098
lradius 54.251
lwrist -8.91324
lhand -56.9792 -374.639
lfingers 7.12502
lthumb -29.2716 -346.922
rfemur -12.683 -18.5833 32.1828
rtibia 25.9499
rfoot -4.26515 4.56917
rtoes 11.6872
lfemur -60.0566 30.2711 12.6291
ltibia 137.275
lfoot 37.6435 -26.3318
ltoes 14.7141
796
root 6.94724 16.2005 2.36506 -172.857 1.63818 -176.506
lowerback 5.6424 8.85126 0.497489
upperback -10.4245 13.2325 -0.266599
thorax -14.4465 6.58537 -3.01241
lowerneck -12.8767 12.7262 9.29562
upperneck 10.7756 13.9127 8.52649
head 5.40205 7.65305 2.4263
rclavicle 3.21037e-014 1.07344e-014
rhumerus -6.98123 16.7633 -8.99228
rradius 25.1183
rwrist 27.3754
rhand -50.9904 19.1468
rfingers 7.12502
rthumb -23.5394 -9.43278
lclavicle 3.21037e-014 1.07344e-014
lhumerus 15.5279 19.6315 -13.6635
lradius 56.023
lwrist -6.03602
lhand -56.0457 -372.382
lfingers 7.12502
lthumb -28.3799 -344.513
rfemur -12.128 -18.9531 32.8095
rtibia 25.5063
rfoot -3.95886 4.81117
rtoes 12.0619
lfemur -62.1539 31.36 11.4916
ltibia 138.852
lfoot 36.92 -26.8012
ltoes 14.5569
797
root 6.98947 16.1879 2.35043 -173.106 1.70022 -176.008
lowerback 5.83825 8.86805 0.730831
upperback -10.3502 13.3177 0.0662413
thorax -14.5144 6.61469 -2.82192
lowerneck -12.99 12.5598 9.24014
upperneck 10.7877 13.6472 8.70436
head 5.41058 7.53241 2.47121
rclavicle 4.57205e-015 6.75868e-015
rhumerus -6.81272 16.7265 -8.73257
rradius 25.2232
rwrist 27.1278
rhand -50.9971 19.089
rfingers 7.12502
rthumb -23.5458 -9.48968
lclavicle 4.57205e-015 6.75868e-015
lhumerus 16.7221 20.4058 -14.0976
lradius 57.7582
lwrist -3.10605
lhand -55.002 -369.994
lfingers 7.12502
lthumb -27.3821 -341.963
rfemur -11.5809 -19.3196 33.4007
rtibia 25.1652
rfoot -3.75336 5.07872
rtoes 12.4332
lfemur -64.2904 31.6334 9.86866
ltibia 139.981
lfoot 36.2821 -26.8242
ltoes 14.433
798
root 7.03175 16.17 2.33535 -173.377 1.81925 -175.528
lowerback 6.04707 8.88887 0.969508
upperback -10.259 13.4056 0.386531
thorax -14.5658 6.64355 -2.6478
lowerneck -13.081 12.3971 9.18508
upperneck 10.7848 13.391 8.87956
head 5.41148 7.41502 2.51392
rclavicle 1.57437e-013 6.2816e-014
rhumerus -6.60965 16.6568 -8.5285
rradius 25.2963
rwrist 26.9057
rhand -50.9942 19.015
rfingers 7.12502
rthumb -23.543 -9.56408
lclavicle 1.57437e-013 6.2816e-014
lhumerus 17.9945 21.286 -14.4091
lradius 59.4521
lwrist -0.168364
lhand -53.8151 -367.472
lfingers 7.12502
lthumb -26.2463 -339.267
rfemur -11.0407 -19.6567 33.9486
rtibia 24.9282
rfoot -3.64641 5.37072
rtoes 12.7747
lfemur -66.4158 30.9743 7.83025
ltibia 140.656
lfoot 35.7355 -26.4239
ltoes 14.2018
